<?xml version="1.0" encoding="utf-8"?>
<!-- Generator: Adobe Illustrator 23.0.3, SVG Export Plug-In . SVG Version: 6.00 Build 0)  -->
<svg version="1.1" id="Layer_1" xmlns="http://www.w3.org/2000/svg" xmlns:xlink="http://www.w3.org/1999/xlink" x="0px" y="0px"
	 viewBox="0 0 512 512" style="enable-background:new 0 0 512 512;" xml:space="preserve">
<path d="M256,0C114.8,0,0,114.8,0,256s114.8,256,256,256c38.9,0,77.8-9.1,113-26.5c6.1,5.8,14.4,9.4,23.5,9.4
	c18.8,0,34.1-15.3,34.1-34.1c0-18.8-15.3-34.1-34.1-34.1c-3.9,0-7.7,0.7-11.2,1.9l-47.4-71.1c2.4-1.9,4.8-3.8,7-5.8
	c3.5-3.1,3.8-8.5,0.7-12c-3.1-3.5-8.5-3.8-12-0.7c-1.7,1.5-3.4,2.9-5.2,4.3l-52.5-78.7h94.7c-0.1,2-0.3,4-0.6,5.9
	c-0.6,4.7,2.7,9,7.4,9.6c0.4,0,0.7,0.1,1.1,0.1c4.2,0,7.9-3.1,8.5-7.4c0.3-2.7,0.6-5.4,0.8-8.1h119.8c4.7,0,8.5-3.8,8.5-8.5
	C512,114.8,397.2,0,256,0z M409.6,460.8c0,9.4-7.7,17.1-17.1,17.1c-5.9,0-11.1-3-14.1-7.5c-0.1-0.1-0.1-0.2-0.2-0.2
	c-1.7-2.7-2.8-5.9-2.8-9.3c0-9.4,7.7-17.1,17.1-17.1C401.9,443.7,409.6,451.4,409.6,460.8z M256,247.5c-3.1,0-6,1.7-7.5,4.5
	c-1.5,2.8-1.3,6.1,0.4,8.8l64.6,96.8c0.2,1,0.6,1.9,1.2,2.8c0.6,0.9,1.4,1.7,2.2,2.3l50.3,75.4c-5.4,6-8.7,14-8.7,22.7
	c0,3.5,0.5,7,1.5,10.2c-32.5,15.7-68.2,24-103.9,24C124.3,494.9,17.1,387.7,17.1,256S124.3,17.1,256,17.1
	c128.9,0,234.3,102.6,238.8,230.4H256z"/>
<path d="M368.7,296.5c-4.3-1.9-9.4,0.1-11.3,4.3c-2.1,4.8-4.6,9.5-7.4,14c-2.5,4-1.3,9.3,2.7,11.8c1.4,0.9,3,1.3,4.5,1.3
	c2.8,0,5.6-1.4,7.2-4c3.2-5.2,6.1-10.6,8.6-16.1C375,303.5,373,298.4,368.7,296.5z"/>
<g>
	<g>
		<path d="M159.8,412.3H64.7c-5.2,0-9.5-4.8-9.5-10.7c0-5.9-5-11.3,0.3-11.3l104.3,0.6c5.2,0,9.5,4.8,9.5,10.7
			C169.3,407.5,165,412.3,159.8,412.3z"/>
	</g>
</g>
<g>
	<g>
		<path d="M139.3,372.5H44.3c-5.2,0-9.5-4.8-9.5-10.7s-5-11.3,0.3-11.3l104.3,0.6c5.2,0,9.5,4.8,9.5,10.7S144.6,372.5,139.3,372.5z"
			/>
	</g>
</g>
</svg>
