<?xml version="1.0" encoding="utf-8"?>
<!-- Generator: Adobe Illustrator 23.0.3, SVG Export Plug-In . SVG Version: 6.00 Build 0)  -->
<svg version="1.1" id="Capa_1" xmlns="http://www.w3.org/2000/svg" xmlns:xlink="http://www.w3.org/1999/xlink" x="0px" y="0px"
	 viewBox="0 0 182.6 182.6" style="enable-background:new 0 0 182.6 182.6;" xml:space="preserve">
<style type="text/css">
	.st0{fill:none;stroke:#000000;stroke-width:6;stroke-miterlimit:10;}
</style>
<g>
	<path class="st0" d="M139,179.1l-95,0.1c-4.5,0-8.5-2.9-9.9-7.1L4.6,81.7c-1.4-4.3,0.1-8.9,3.7-11.6l76.8-55.9
		c3.6-2.6,8.5-2.6,12.2,0L174.3,70c3.6,2.6,5.2,7.3,3.8,11.6L148.8,172C147.4,176.2,143.5,179.1,139,179.1z"/>
	<rect x="87.6" y="14.6" transform="matrix(1 3.869107e-03 -3.869107e-03 1 0.3754 -0.3506)" width="6.3" height="164.6"/>
	<g>
		<g>
			<path d="M78.3,153.8l-48.7-0.2c-1.5,0-2.7,1.2-2.7,2.7c0,1.5,1.2,2.7,2.7,2.7l48.7,0.2c1.5,0,2.7-1.2,2.7-2.7
				C81,155,79.8,153.8,78.3,153.8z"/>
		</g>
	</g>
	<g>
		<g>
			<path d="M53.3,138.3l-27.1-0.1c-1.5,0-2.7,1.2-2.7,2.7c0,1.5,1.2,2.7,2.7,2.7l27.1,0.1c1.5,0,2.7-1.2,2.7-2.7
				C56,139.6,54.8,138.3,53.3,138.3z"/>
		</g>
	</g>
	<g>
		<g>
			<path d="M173.9,87.6l-27.1-0.1c-1.5,0-2.7,1.2-2.7,2.7s1.2,2.7,2.7,2.7l27.1,0.1c1.5,0,2.7-1.2,2.7-2.7
				C176.6,88.8,175.4,87.6,173.9,87.6z"/>
		</g>
	</g>
	<g>
		<g>
			<path d="M116.5,111c-3.2-3.2-8.4-3.2-11.6,0s-3.2,8.4,0,11.6s8.4,3.2,11.6,0C119.7,119.5,119.7,114.2,116.5,111z M107.7,119.7
				c-1.6-1.6-1.6-4.2,0-5.8c1.6-1.6,4.2-1.6,5.8,0s1.6,4.2,0,5.8C111.9,121.3,109.3,121.3,107.7,119.7z"/>
		</g>
	</g>
	<g>
		<g>
			<path d="M112.6,154.7l0.1-31.4c0-1.1-0.9-2.1-2.1-2.1c-1.1,0-2.1,0.9-2.1,2.1l-0.1,31.4c0,0.6,0.2,1.1,0.6,1.5s0.9,0.6,1.5,0.6
				C111.6,156.7,112.6,155.8,112.6,154.7z"/>
		</g>
	</g>
	<g>
		<g>
			<path d="M112.7,109.8l0.1-30.9c0-1.1-0.9-2.1-2.1-2.1c-1.1,0-2.1,0.9-2.1,2.1l-0.1,30.9c0,0.6,0.2,1.1,0.6,1.5
				c0.4,0.4,0.9,0.6,1.5,0.6C111.8,111.9,112.7,111,112.7,109.8z"/>
		</g>
	</g>
	<g>
		<g>
			<path d="M121,86.3l-8.7-8.8c-0.8-0.8-2.1-0.8-2.9,0l-8.8,8.7c-0.8,0.8-0.8,2.1,0,2.9c0.8,0.8,2.1,0.8,2.9,0l7.3-7.3l7.3,7.3
				c0.8,0.8,2.1,0.8,2.9,0C121.8,88.4,121.8,87.1,121,86.3z"/>
		</g>
	</g>
	<g>
		<g>
			<path d="M150,115.5l-8.7-8.8c-0.8-0.8-2.1-0.8-2.9,0c-0.8,0.8-0.8,2.1,0,2.9l7.3,7.3l-7.3,7.3c-0.8,0.8-0.8,2.1,0,2.9
				c0.8,0.8,2.1,0.8,2.9,0l8.8-8.7C150.8,117.6,150.8,116.3,150,115.5z"/>
		</g>
	</g>
	<g>
		<g>
			<path d="M120.7,144.5c-0.8-0.8-2.1-0.8-2.9,0l-7.3,7.3l-7.3-7.3c-0.8-0.8-2.1-0.8-2.9,0s-0.8,2.1,0,2.9l8.7,8.8
				c0.8,0.8,2.1,0.8,2.9,0l8.8-8.7C121.5,146.6,121.5,145.3,120.7,144.5z"/>
		</g>
	</g>
	<g>
		<g>
			<path d="M147.6,117c0-1.1-0.9-2.1-2.1-2.1l-27.7-0.1c-1.1,0-2.1,0.9-2.1,2.1c0,0.6,0.2,1.1,0.6,1.5c0.4,0.4,0.9,0.6,1.5,0.6
				l27.7,0.1C146.7,119,147.6,118.1,147.6,117z"/>
		</g>
	</g>
</g>
</svg>
