<?xml version="1.0" encoding="utf-8"?>
<!-- Generator: Adobe Illustrator 23.0.3, SVG Export Plug-In . SVG Version: 6.00 Build 0)  -->
<svg version="1.1" id="Layer_1" xmlns="http://www.w3.org/2000/svg" xmlns:xlink="http://www.w3.org/1999/xlink" x="0px" y="0px"
	 viewBox="0 0 512 512" style="enable-background:new 0 0 512 512;" xml:space="preserve">
<g>
	<g>
		<path d="M500.4,72.5h-46.2c-7.5,0-13.6,6.1-13.6,13.6v7c0,2.8-2.3,5-5,5H36.1c-7.5,0-13.6,6.1-13.6,13.6v254.5c0,2.8-2.3,5-5,5h-7
			C3,371.2-3,377.3-3,384.8v41.1c0,7.5,6.1,13.6,13.6,13.6h41.1c7.5,0,13.6-6.1,13.6-13.6v-7c0-2.8,2.3-5,5-5h399.5
			c7.5,0,13.6-6.1,13.6-13.6v-3.5v-251c0-2.8,2.3-5,5-5h7c7.5,0,13.6-6.1,13.6-13.6V81.1C509,76.4,505.1,72.5,500.4,72.5z
			 M466.3,396.8h-396c-2.8,0-5-2.3-5-5v-7c0-7.5-6.1-13.6-13.6-13.6h-7c-2.8,0-5-2.3-5-5V120.2c0-2.8,2.3-5,5-5h391c2.8,0,5,2.3,5,5
			v7c0,7.5,6.1,13.6,13.6,13.6h7c2.8,0,5,2.3,5,5L466.3,396.8L466.3,396.8z"/>
	</g>
</g>
<path d="M498.3,430.8h-40.9c-7.7,0-14-6.3-14-14v-40.1c0-7.7,6.3-14,14-14h40.9c7.7,0,14,6.3,14,14v40.1
	C512.2,424.5,506,430.8,498.3,430.8z"/>
<path d="M54.9,143.6H14c-7.7,0-14-6.3-14-14V89.5c0-7.7,6.3-14,14-14h40.9c7.7,0,14,6.3,14,14v40.1
	C68.9,137.3,62.6,143.6,54.9,143.6z"/>
<path d="M478.5,125.7L61.9,389.6c-2.3,1.5-5.5,0.8-6.9-1.6l-3.8-5.9c-1.5-2.3-0.8-5.5,1.6-6.9l416.6-263.9c2.3-1.5,5.5-0.8,6.9,1.6
	l3.8,5.9C481.5,121.1,480.8,124.2,478.5,125.7z"/>
<path d="M147.2,170.1H37.2c-2.5,0-4.6-2-4.6-4.6v-7.9c0-2.5,2-4.6,4.6-4.6h109.6c2.7,0,4.9,2.2,4.9,4.9v7.6
	C151.7,168,149.7,170.1,147.2,170.1z"/>
<path d="M107.7,205.2H30c-2.7,0-5-2.2-5-5v-7.1c0-2.7,2.2-5,5-5h77.7c2.7,0,5,2.2,5,5v7.1C112.7,202.9,110.4,205.2,107.7,205.2z"/>
<g>
	<g>
		<g>
			<path d="M313.1,299.4c2.4-11.1-4.8-22.1-15.9-24.5c-11.1-2.4-22.1,4.8-24.5,15.9c-2.4,11.1,4.8,22.1,15.9,24.5
				C299.8,317.6,310.7,310.5,313.1,299.4z M282.8,292.9c1.2-5.6,6.7-9.1,12.2-8c5.6,1.2,9.1,6.7,8,12.2c-1.2,5.6-6.7,9.1-12.2,8
				C285.2,304,281.6,298.5,282.8,292.9z"/>
		</g>
	</g>
	<g>
		<g>
			<path d="M216.1,351.2l66-42.9c2.4-1.6,3.1-4.8,1.5-7.1c-1.6-2.4-4.8-3.1-7.1-1.5l-66,42.9c-1.2,0.8-2,2-2.2,3.3s-0.1,2.7,0.7,3.9
				C210.5,352.1,213.7,352.7,216.1,351.2z"/>
		</g>
	</g>
	<g>
		<g>
			<path d="M310.4,289.9l64.9-42.2c2.4-1.6,3.1-4.8,1.5-7.1c-1.6-2.4-4.8-3.1-7.1-1.5l-64.9,42.2c-1.2,0.8-2,2-2.2,3.3
				c-0.3,1.3-0.1,2.7,0.7,3.9C304.8,290.7,308,291.4,310.4,289.9z"/>
		</g>
	</g>
	<g>
		<g>
			<path d="M371.1,274.7l6.4-30.3c0.6-2.8-1.2-5.5-4-6.1l-30.3-6.4c-2.8-0.6-5.5,1.2-6.1,4c-0.6,2.8,1.2,5.5,4,6.1l25.3,5.4
				l-5.4,25.3c-0.6,2.8,1.2,5.5,4,6.1C367.8,279.3,370.5,277.5,371.1,274.7z"/>
		</g>
	</g>
	<g>
		<g>
			<path d="M349.7,375.8l6.4-30.3c0.6-2.8-1.2-5.5-4-6.1c-2.8-0.6-5.5,1.2-6.1,4l-5.4,25.3l-25.3-5.4c-2.8-0.6-5.5,1.2-6.1,4
				c-0.6,2.8,1.2,5.5,4,6.1l30.3,6.4C346.4,380.3,349.1,378.5,349.7,375.8z"/>
		</g>
	</g>
	<g>
		<g>
			<path d="M248.7,354.3c0.6-2.8-1.2-5.5-4-6.1l-25.3-5.4l5.4-25.3c0.6-2.8-1.2-5.5-4-6.1s-5.5,1.2-6.1,4l-6.4,30.3
				c-0.6,2.8,1.2,5.5,4,6.1l30.3,6.4C245.3,358.9,248.1,357.1,248.7,354.3z"/>
		</g>
	</g>
	<g>
		<g>
			<path d="M343.5,372.9c2.4-1.6,3.1-4.8,1.5-7.1l-37.8-58.2c-1.6-2.4-4.8-3.1-7.1-1.5c-1.2,0.8-2,2-2.2,3.3s-0.1,2.7,0.7,3.9
				l37.8,58.2C337.9,373.8,341.1,374.4,343.5,372.9z"/>
		</g>
	</g>
</g>
</svg>
