<?xml version="1.0" encoding="utf-8"?>
<!-- Generator: Adobe Illustrator 23.0.3, SVG Export Plug-In . SVG Version: 6.00 Build 0)  -->
<svg version="1.1" id="Capa_1" xmlns="http://www.w3.org/2000/svg" xmlns:xlink="http://www.w3.org/1999/xlink" x="0px" y="0px"
	 viewBox="0 0 191.1 191.1" style="enable-background:new 0 0 191.1 191.1;" xml:space="preserve">
<g>
	<g>
		<g>
			<path d="M129.7,58c-7.5,0-13.7,6.1-13.7,13.7s6.1,13.7,13.7,13.7s13.7-6.1,13.7-13.7C143.4,64.2,137.2,58,129.7,58z M129.7,78.5
				c-3.8,0-6.8-3.1-6.8-6.8s3.1-6.8,6.8-6.8c3.8,0,6.8,3.1,6.8,6.8S133.5,78.5,129.7,78.5z"/>
		</g>
	</g>
	<g>
		<g>
			<path d="M176.5,113.6l-36.8-36.8c-1.3-1.3-3.5-1.3-4.8,0c-1.3,1.3-1.3,3.5,0,4.8l36.8,36.8c0.7,0.7,1.5,1,2.4,1s1.7-0.3,2.4-1
				C177.8,117.1,177.8,115,176.5,113.6z"/>
		</g>
	</g>
	<g>
		<g>
			<path d="M123.9,61.1L87.7,24.9c-1.3-1.3-3.5-1.3-4.8,0c-1.3,1.3-1.3,3.5,0,4.8l36.2,36.2c0.7,0.7,1.5,1,2.4,1s1.7-0.3,2.4-1
				C125.3,64.6,125.3,62.4,123.9,61.1z"/>
		</g>
	</g>
	<g>
		<g>
			<path d="M190.1,185.3L5.8,1c-1-1-2.4-1.3-3.7-0.7C0.8,0.8,0,2,0,3.4v184.3c0,1.9,1.5,3.4,3.4,3.4h184.3c1.4,0,2.6-0.8,3.2-2.1
				C191.4,187.8,191.1,186.3,190.1,185.3z M6.8,184.3V11.7l172.7,172.7H6.8z"/>
		</g>
	</g>
	<g>
		<g>
			<path d="M105.8,23.9H85.3c-1.9,0-3.4,1.5-3.4,3.4v20.5c0,1.9,1.5,3.4,3.4,3.4s3.4-1.5,3.4-3.4V30.7h17.1c1.9,0,3.4-1.5,3.4-3.4
				S107.7,23.9,105.8,23.9z"/>
		</g>
	</g>
	<g>
		<g>
			<path d="M174.1,23.9h-20.5c-1.9,0-3.4,1.5-3.4,3.4s1.5,3.4,3.4,3.4h17.1v17.1c0,1.9,1.5,3.4,3.4,3.4c1.9,0,3.4-1.5,3.4-3.4V27.3
				C177.5,25.4,176,23.9,174.1,23.9z"/>
		</g>
	</g>
	<g>
		<g>
			<path d="M174.1,92.2c-1.9,0-3.4,1.5-3.4,3.4v17.1h-17.1c-1.9,0-3.4,1.5-3.4,3.4s1.5,3.4,3.4,3.4h20.5c1.9,0,3.4-1.5,3.4-3.4V95.6
				C177.5,93.7,176,92.2,174.1,92.2z"/>
		</g>
	</g>
	<g>
		<g>
			<path d="M173.1,28.3c-1.3-1.3-3.5-1.3-4.8,0l-32.4,32.4c-1.3,1.3-1.3,3.5,0,4.8c0.7,0.7,1.5,1,2.4,1s1.7-0.3,2.4-1l32.4-32.4
				C174.4,31.8,174.4,29.6,173.1,28.3z"/>
		</g>
	</g>
	<g>
		<g>
			<path d="M64.9,160.4H3.4c-1.9,0-3.4,1.5-3.4,3.4s1.5,3.4,3.4,3.4h61.4c1.9,0,3.4-1.5,3.4-3.4S66.7,160.4,64.9,160.4z"/>
		</g>
	</g>
	<g>
		<g>
			<path d="M37.5,139.9H3.4c-1.9,0-3.4,1.5-3.4,3.4s1.5,3.4,3.4,3.4h34.1c1.9,0,3.4-1.5,3.4-3.4S39.4,139.9,37.5,139.9z"/>
		</g>
	</g>
</g>
</svg>
